<svg width="517" height="175" viewBox="0 0 517 175" fill="none" xmlns="http://www.w3.org/2000/svg">
<path d="M496.678 0.0772877L487.735 0.178946V1.90714C487.735 3.5845 487.79 3.63533 490.533 3.94031C500.738 5.21103 507.102 11.5139 508.529 21.7813C508.748 23.6112 509.132 24.3736 509.845 24.4753C510.723 24.6278 510.778 23.8145 510.778 12.6829C510.778 5.36352 510.559 0.636408 510.229 0.433092C509.461 -0.0243702 506.663 -0.0751991 496.678 0.0772877Z" fill="white"/>
<path d="M171.174 1.14471C171.174 1.95798 171.887 2.11047 176.331 2.36462C182.311 2.66959 185.438 3.88949 186.92 6.43095C187.852 7.95583 187.907 11.1072 187.907 56.8535C187.907 97.0085 187.797 105.954 187.139 107.276C185.932 109.97 183.463 110.987 176.934 111.647C171.942 112.105 171.174 112.308 171.174 113.121C171.174 113.985 173.094 114.036 217.698 114.036C253.14 114.036 264.387 113.884 264.881 113.426C265.265 113.071 265.539 111.292 265.539 108.953C265.539 105.497 265.868 101.329 266.965 89.4858C267.295 85.8261 267.24 85.4703 266.362 85.6736C265.703 85.7753 265.045 87.046 264.058 90.0958C261.26 99.1942 255.609 105.954 248.696 108.547C245.569 109.716 245.185 109.716 226.312 109.716C205.354 109.716 205.134 109.665 202.775 106.768C201.623 105.345 201.623 105.09 201.458 57.311C201.349 10.3956 201.349 9.17573 202.391 6.99007C203.872 3.94032 206.89 2.66959 213.528 2.31379C217.698 2.11047 218.356 1.95798 218.356 1.14471C218.356 0.331451 216.985 0.280617 194.765 0.280617C172.545 0.280617 171.174 0.331451 171.174 1.14471Z" fill="white"/>
<path d="M278.267 1.09395C278.432 1.80556 279.364 2.00888 283.424 2.26302C289.569 2.66965 293.025 3.94038 294.452 6.38019C295.384 7.95589 295.439 10.6498 295.439 57.2094C295.439 106.056 295.439 106.361 294.287 107.734C292.093 110.478 290.776 110.987 284.467 111.647C279.748 112.105 278.432 112.41 278.432 113.02C278.432 113.681 281.449 113.782 302.297 113.782C323.145 113.782 326.163 113.681 326.163 113.02C326.163 112.41 324.901 112.105 320.676 111.698C317.659 111.342 314.696 110.936 314.093 110.732C311.789 109.919 310.033 107.835 309.429 105.192C309.045 103.413 308.881 87.4527 308.991 55.837C309.155 10.2432 309.155 9.0233 310.252 7.04096C311.898 4.04205 314.751 2.77132 321.061 2.31385C325.066 2.05971 326.163 1.80556 326.163 1.19561C326.163 0.534828 323.09 0.433174 302.133 0.331512C279.913 0.280685 278.102 0.331512 278.267 1.09395Z" fill="white"/>
<path d="M342.678 0.585587C342.129 1.39885 343.226 2.05963 345.695 2.36461C348.987 2.77124 352.388 4.19446 355.9 6.58343L358.807 8.56577V52.7872C358.807 81.2515 358.588 98.1776 358.204 100.312C356.997 107.174 353.54 110.529 346.518 111.597C343.72 112.003 342.897 112.359 342.897 113.02C342.897 113.782 344.378 113.884 361.002 113.884C377.79 113.833 379.107 113.782 379.107 112.969C379.107 112.308 378.448 112.003 376.254 111.749C370.109 110.987 366.269 108.242 364.458 103.261C363.58 100.77 363.471 97.161 363.306 56.8535L363.142 13.1404L364.513 14.4111C365.226 15.1227 386.02 38.3008 410.653 66.0027C444.614 104.175 455.806 116.374 456.793 116.476L458.11 116.629V66.3077C458.11 30.9814 458.275 15.1736 458.714 13.2929C460.414 5.97348 464.365 2.77124 472.649 2.11046C473.691 2.0088 474.35 1.653 474.459 1.09387C474.624 0.331436 473.198 0.229782 456.519 0.280609C439.511 0.280609 438.359 0.331436 438.359 1.14471C438.359 1.90714 438.963 2.11046 441.377 2.36461C447.083 2.92373 450.484 5.61768 452.459 11.0564C453.337 13.3945 453.447 17.6134 453.611 54.4137C453.666 76.8802 453.556 95.2295 453.337 95.2295C452.788 95.1787 377.461 9.3282 374.334 5.16021C370.219 -0.329338 371.975 0.178947 356.558 0.178947C349.097 0.178947 342.842 0.382271 342.678 0.585587Z" fill="white"/>
<path d="M36.7585 1.24647C34.1799 1.50062 24.9628 1.65311 16.1847 1.60227C0.603497 1.44979 0.274317 1.44979 0.274317 2.46637C0.274317 3.38129 0.768088 3.53378 5.5412 3.78793C11.631 4.0929 14.4839 5.21114 16.1847 7.85426C17.282 9.53162 17.282 10.6499 17.4466 56.5994C17.5563 90.045 17.4466 104.379 17.0077 106.26C15.9104 110.987 11.8505 113.02 3.56612 113.02C0.219454 113.02 0 113.071 0 114.138V115.307L23.701 115.256C46.6887 115.205 47.4568 115.205 47.4568 114.24C47.4568 113.376 46.9082 113.223 41.8608 112.969C35.4966 112.613 33.3569 111.749 31.5465 108.953C30.504 107.225 30.4492 106.26 30.2846 82.2682L30.12 57.3619H37.9655C42.2997 57.3619 46.6887 57.1077 47.786 56.7519L49.7611 56.2436L53.2724 61.3266C62.4345 74.6946 77.3025 93.9589 85.0931 102.6C90.0857 108.191 96.6144 113.884 98.9736 114.799C100.51 115.409 103.802 115.561 115.213 115.561C128.325 115.561 129.532 115.51 130.465 114.646C131.343 113.833 131.562 112.461 131.837 104.836C132.056 99.9567 132.44 94.3147 132.769 92.2307C133.208 89.2826 133.153 88.3168 132.605 88.0119C131.617 87.4527 130.849 88.5202 130.081 91.6716C128.216 99.0418 122.345 106.92 116.804 109.309C114.445 110.326 114.335 110.377 112.415 109.411C104.899 105.904 92.9386 94.2639 79.4422 77.4394C74.0656 70.6791 60.8984 53.0414 60.8984 52.5839C60.8984 52.4314 62.4345 51.364 64.245 50.2458C70.7189 46.2811 76.4796 39.4192 79.113 32.5572C80.8686 27.9826 80.8686 19.4433 79.0582 15.2753C76.315 8.87085 69.2376 3.94041 59.8011 1.95808C54.9183 0.941498 43.3421 0.585693 36.7585 1.24647ZM51.0778 4.44871C60.8984 7.24432 65.7263 13.598 66.9333 25.5428C67.866 34.7937 66.1653 42.6214 62.2151 46.8402C57.9906 51.4149 52.1751 53.1431 40.8732 53.1939C36.9779 53.1939 32.918 52.9906 31.9305 52.7873L30.12 52.4314L30.2846 31.0324C30.4492 11.4123 30.5589 9.42997 31.4367 7.70177C32.4791 5.8211 34.0153 4.55037 35.9355 4.0929C38.4044 3.53378 48.6638 3.78793 51.0778 4.44871Z" fill="white"/>
<path d="M103.691 3.22873C103.691 5.21107 103.746 5.2619 105.557 5.2619C106.599 5.2619 108.958 5.71936 110.769 6.22765C118.285 8.41331 123.168 14.0553 124.594 22.3913C125.088 25.3903 125.417 26.1019 126.131 26.0002C126.899 25.8477 127.008 24.5262 126.789 13.9029C126.679 7.3459 126.515 1.80552 126.35 1.55137C126.24 1.34805 121.083 1.19557 114.884 1.19557H103.691V3.22873Z" fill="white"/>
<path d="M501.287 39.6733C501.067 39.8258 500.903 40.5374 500.903 41.1982C500.903 44.0446 499.586 47.1452 497.611 48.975C495.965 50.4999 494.648 51.1099 491.631 51.8215L487.681 52.7872L487.845 54.7696C488.01 56.7519 488.065 56.8027 490.863 57.3618C496.953 58.6326 500.19 62.2923 500.848 68.4934C501.122 71.1874 501.342 71.594 502.384 71.7465L503.591 71.899L503.317 56.2436C503.152 47.6535 502.933 40.2832 502.768 39.9274C502.549 39.2667 501.835 39.1142 501.287 39.6733Z" fill="white"/>
<path d="M117.188 41.6048C117.023 42.0623 116.859 43.1805 116.859 44.0954C116.859 44.9595 116.31 46.7386 115.652 47.9585C113.896 51.2115 111.263 52.6347 105.228 53.8038C103.856 54.058 103.691 54.3121 103.691 56.0403C103.691 58.0226 103.691 58.0226 106.435 58.5818C113.183 59.9541 116.31 63.3089 117.188 70.2216C117.462 72.8139 117.736 73.373 118.559 73.373C119.492 73.373 119.547 72.5598 119.437 57.2602C119.327 42.8247 119.218 41.0965 118.45 40.944C117.956 40.8424 117.407 41.1474 117.188 41.6048Z" fill="white"/>
<path d="M514.07 89.4858C511.766 99.245 505.127 107.073 497.336 109.208C495.91 109.614 493.112 109.97 491.192 109.97H487.735V112.003V114.036H500.848C510.668 114.036 514.07 113.884 514.509 113.376C514.783 113.071 515.332 108.293 515.661 102.854C516.045 97.4152 516.484 91.6207 516.758 89.9941C517.197 86.8935 517.142 86.5886 515.716 86.5886C515.057 86.5886 514.618 87.351 514.07 89.4858Z" fill="white"/>
<path d="M354.418 154.446C354.418 155.005 354.308 156.377 354.144 157.495C353.869 159.427 353.924 159.427 354.418 157.953C355.076 155.97 356.393 154.903 358.807 154.293C360.672 153.836 360.672 153.836 357.545 153.632C354.692 153.429 354.418 153.531 354.418 154.446Z" fill="white"/>
<path d="M367.037 153.886C363.416 154.191 361.111 154.598 361.715 154.801C362.538 155.157 362.648 156.072 362.648 163.493C362.648 172.388 362.538 172.693 359.904 173.151C359.136 173.252 361.002 173.354 364.019 173.354C367.037 173.354 368.902 173.252 368.134 173.151C365.5 172.693 365.391 172.337 365.391 163.9C365.391 159.529 365.665 155.615 365.939 155.208C366.653 154.141 370.548 154.242 371.919 155.411C372.523 155.92 373.072 157.038 373.181 157.953C373.291 158.919 373.51 158.309 373.62 156.326C373.785 154.598 373.785 153.226 373.62 153.226C373.456 153.277 370.493 153.582 367.037 153.886Z" fill="white"/>
<path d="M51.6812 154.954C50.0353 156.224 49.8707 156.58 50.0353 158.664C50.1999 161.206 49.7061 160.697 57.1676 165.628C60.0753 167.559 60.8983 169.44 59.7461 171.372C57.8259 174.574 53.6014 173.913 50.968 169.999L49.377 167.712V169.847C49.377 172.287 50.4742 173.201 54.1501 173.761C58.8135 174.472 62.8185 171.982 62.8185 168.423C62.8185 165.984 61.7212 164.815 57.2224 162.476C55.3022 161.511 53.382 160.24 52.9431 159.63C51.0777 157.139 52.559 154.191 55.7411 154.191C57.7162 154.191 59.5267 155.31 60.9531 157.444L62.0504 159.02L61.6664 156.987C61.5018 155.869 61.1177 154.75 60.8434 154.445C60.5691 154.191 58.8135 153.886 56.8932 153.785C53.766 153.581 53.2723 153.734 51.6812 154.954Z" fill="white"/>
<path d="M180.995 155.157C179.074 156.936 178.91 159.173 180.446 162.019L181.543 163.951L179.349 165.882C177.428 167.56 177.154 168.068 177.319 169.745C177.538 172.49 179.623 173.761 183.683 173.71C185.548 173.71 187.523 173.354 188.621 172.795C190.321 171.982 190.596 171.982 192.296 172.693C193.284 173.151 195.314 173.507 196.795 173.456C199.374 173.405 199.429 173.405 197.783 172.846C195.424 171.982 192.571 170.508 192.571 170.101C192.571 168.881 196.082 163.239 197.124 162.833C198.002 162.528 197.179 162.375 194.217 162.375C191.254 162.375 190.431 162.528 191.309 162.833C191.967 163.087 192.68 163.849 192.9 164.561C193.229 165.781 192.242 169.44 191.638 169.44C189.882 169.44 183.354 162.375 182.092 159.173C181.104 156.581 181.872 154.497 183.847 154.293C187.139 153.937 188.237 157.953 185.658 160.749C183.738 162.883 184.835 162.731 187.249 160.545C188.895 159.071 189.279 158.36 189.279 156.733C189.279 154.395 188.291 153.683 184.89 153.683C183.079 153.683 182.256 153.988 180.995 155.157ZM189.224 171.27C189.334 171.524 188.511 172.033 187.414 172.439C184.396 173.507 181.214 172.541 180.172 170.152C179.294 168.22 179.568 166.696 180.94 165.221C181.708 164.408 181.982 164.561 185.384 167.56C187.359 169.339 189.114 171.016 189.224 171.27Z" fill="white"/>
<path d="M333.075 154.395C331.539 155.157 330.332 157.038 330.277 158.614C330.277 160.189 332.636 162.527 335.983 164.306C339.769 166.34 340.811 167.458 340.866 169.694C340.921 171.778 339.988 172.846 337.684 173.303C335.544 173.659 332.582 171.88 331.265 169.44L330.277 167.661V169.999C330.277 171.982 330.497 172.388 331.594 172.897C337.3 175.286 343.445 173.049 343.445 168.576C343.445 165.984 342.676 165.12 338.507 162.832C334.337 160.545 333.021 159.224 333.021 157.14C333.021 155.36 334.337 154.191 336.367 154.191C338.617 154.191 339.988 154.954 341.25 156.885L342.347 158.512V156.58C342.347 155.005 342.128 154.598 340.921 154.191C338.946 153.48 334.612 153.581 333.075 154.395Z" fill="white"/>
<path d="M422.448 154.141C420.199 154.344 419.266 154.598 419.87 154.801C420.693 155.157 420.802 156.072 420.802 163.493C420.802 172.185 420.693 172.592 418.334 173.151C417.73 173.303 420.583 173.405 424.643 173.354C430.952 173.252 432.379 173.1 434.244 172.185C440.224 169.288 441.486 161.104 436.603 156.885C435.012 155.513 431.72 154.191 430.019 154.242C429.032 154.293 429.087 154.395 430.513 154.75C434.573 155.818 437.152 160.443 436.548 165.425C435.89 170.304 432.817 172.998 427.77 172.998C423.71 172.998 423.546 172.592 423.546 163.646C423.546 155.106 423.6 154.903 427.002 154.191C429.087 153.734 427.88 153.683 422.448 154.141Z" fill="white"/>
<path d="M482.139 154.242C485.815 154.903 487.845 156.225 489.272 158.868C490.863 161.765 491.027 167 489.656 169.44C487.735 172.846 482.359 174.066 478.573 171.931C473.8 169.186 472.483 160.494 476.324 156.479C478.354 154.293 477.695 154.192 475.062 156.225C472.483 158.156 471.276 160.596 471.276 163.747C471.276 170.457 477.256 175.032 484.169 173.557C494.209 171.423 496.952 160.037 488.668 155.056C486.803 153.937 485.815 153.683 483.072 153.734L479.78 153.785L482.139 154.242Z" fill="white"/>
<path d="M75.8758 154.751C76.6988 155.208 76.8085 156.174 76.8085 163.544C76.8085 172.185 76.6988 172.592 74.3397 173.151C73.7362 173.252 75.4918 173.405 78.1801 173.405C80.9233 173.405 82.624 173.252 82.0205 173.151C79.9357 172.642 79.5517 171.931 79.5517 168.424C79.5517 165.73 79.7711 164.866 80.5941 164.154C81.5816 163.341 81.7462 163.442 84.3248 166.543C85.861 168.271 87.6715 170.609 88.3847 171.626C89.6465 173.456 89.8111 173.506 92.9932 173.456C96.0107 173.405 96.1204 173.354 94.4745 172.947C93.1029 172.592 91.5668 171.118 88.0555 167.051L83.3921 161.612L85.9707 159.122C88.6041 156.682 90.6341 155.411 93.2675 154.649C94.2551 154.395 93.5967 154.293 91.073 154.242C88.7139 154.242 87.7812 154.344 88.3298 154.649C88.9333 155.055 88.1104 156.072 84.3248 159.63L79.5517 164.103V159.935C79.5517 156.835 79.7711 155.564 80.4295 155.005C81.1976 154.242 80.9781 154.191 78.0704 154.191C75.6564 154.242 75.1078 154.344 75.8758 154.751Z" fill="white"/>
<path d="M108.081 155.208C109.069 156.123 109.178 156.885 109.178 163.29C109.178 171.423 108.794 172.846 106.6 173.151C105.777 173.252 107.423 173.354 110.276 173.354C113.128 173.354 114.774 173.252 113.951 173.151C111.647 172.846 111.263 171.219 111.483 162.934C111.647 156.377 111.757 155.564 112.69 154.903C113.677 154.242 113.458 154.191 110.385 154.191H106.984L108.081 155.208Z" fill="white"/>
<path d="M127.009 154.801C128.82 155.716 128.929 156.225 128.874 162.324C128.874 170.05 128.436 172.032 126.735 172.846C125.473 173.405 125.692 173.506 128.929 173.456C131.892 173.456 132.276 173.354 131.234 172.897C129.588 172.134 129.423 171.27 129.588 163.493L129.752 156.834L137.433 165.526L145.114 174.167L145.388 164.916C145.663 156.479 145.772 155.564 146.705 154.903C147.693 154.242 147.528 154.191 144.785 154.242C142.59 154.242 142.096 154.344 142.974 154.7C143.688 154.954 144.291 155.767 144.51 156.733C145.004 159.02 144.949 169.44 144.456 169.44C144.181 169.389 141.054 165.984 137.433 161.816L130.904 154.191H128.381C126.241 154.242 126.076 154.293 127.009 154.801Z" fill="white"/>
<path d="M228.232 154.547C229.713 155.106 229.878 155.869 229.878 163.646C229.878 171.626 229.604 172.693 227.409 173.151C226.806 173.303 228.561 173.405 231.249 173.405C233.993 173.405 235.693 173.252 235.09 173.151C232.731 172.592 232.621 172.185 232.621 163.544C232.621 156.174 232.731 155.208 233.609 154.751C234.322 154.344 233.663 154.242 230.975 154.242C229 154.242 227.793 154.395 228.232 154.547Z" fill="white"/>
<path d="M247.983 154.852C249.355 155.462 249.355 155.564 249.519 162.629C249.684 170.355 249.245 172.236 247.325 172.998C246.392 173.303 247.05 173.456 249.903 173.456C252.646 173.456 253.415 173.303 252.537 172.998C250.452 172.236 250.123 170.863 250.287 163.595L250.452 156.682L258.133 165.374L265.814 174.065L266.143 164.764C266.307 159.63 266.472 155.411 266.527 155.31C266.582 155.259 267.185 154.954 267.898 154.7C268.831 154.344 268.447 154.242 266.143 154.242C263.4 154.191 263.235 154.242 264.223 154.903C265.155 155.564 265.265 156.377 265.43 162.578C265.594 167.254 265.43 169.44 265.046 169.237C264.771 169.033 261.589 165.577 258.078 161.562L251.714 154.191H249.135C246.721 154.191 246.666 154.242 247.983 154.852Z" fill="white"/>
<path d="M282.163 154.75C282.986 155.208 283.096 156.174 283.096 163.544C283.096 172.185 282.986 172.591 280.627 173.151C280.023 173.252 281.779 173.405 284.467 173.405C287.21 173.405 288.911 173.252 288.308 173.151C286.168 172.642 285.839 171.982 285.839 168.169C285.839 165.425 286.058 164.306 286.717 163.798C287.704 163.086 288.143 163.493 293.081 169.796L295.934 173.506L299.28 173.456C302.517 173.456 302.572 173.456 300.652 172.846C299.28 172.388 297.525 170.812 294.178 167L289.515 161.714L292.752 158.715C294.617 156.936 296.866 155.411 298.183 155.005L300.378 154.293L297.25 154.242C294.672 154.191 294.178 154.344 294.397 154.954C294.617 155.462 293.245 157.139 290.283 159.935L285.839 164.103V159.681C285.839 156.021 286.003 155.157 286.826 154.75C287.54 154.344 286.991 154.242 284.467 154.242C281.943 154.242 281.395 154.344 282.163 154.75Z" fill="white"/>
<path d="M385.854 154.751C386.623 155.157 386.787 156.072 386.787 160.698C386.787 169.186 387.939 171.626 392.603 173.303C396.772 174.777 400.722 173.71 403.411 170.355C404.289 169.237 404.508 167.966 404.727 162.985C405.002 155.716 405.166 154.852 406.428 154.547C406.922 154.395 405.989 154.293 404.343 154.242C401.491 154.192 401.436 154.242 402.588 155.005C403.74 155.716 403.795 156.123 403.795 161.968C403.795 168.678 403.411 169.949 400.887 171.677C398.857 173.049 395.017 173.049 392.932 171.626C390.189 169.796 389.53 167.763 389.53 161.206C389.53 156.072 389.64 155.208 390.518 154.751C391.231 154.344 390.682 154.242 388.159 154.242C385.635 154.242 385.086 154.344 385.854 154.751Z" fill="white"/>
<path d="M452.623 154.547C454.104 155.106 454.269 155.869 454.269 163.646C454.269 171.829 453.994 172.744 451.525 173.151C450.757 173.252 452.513 173.354 455.366 173.354C458.219 173.405 460.084 173.252 459.481 173.151C457.121 172.592 457.012 172.185 457.012 163.544C457.012 156.174 457.121 155.208 457.999 154.751C458.713 154.344 458.054 154.242 455.366 154.242C453.391 154.242 452.184 154.395 452.623 154.547Z" fill="white"/>
</svg>
