<svg width="100" height="42" viewBox="0 0 100 42" fill="none" xmlns="http://www.w3.org/2000/svg">
<path d="M96.0696 0.0186348L94.3398 0.0431495V0.459899C94.3398 0.864391 94.3505 0.876648 94.881 0.950192C96.8549 1.25663 98.0858 2.77654 98.3617 5.25252C98.4042 5.69378 98.4785 5.87764 98.6164 5.90216C98.7862 5.93893 98.7968 5.74281 98.7968 3.05845C98.7968 1.2934 98.7544 0.153466 98.6907 0.104436C98.5421 -0.00587988 98.0009 -0.018137 96.0696 0.0186348Z" fill="black"/>
<path d="M33.1094 0.276037C33.1094 0.472155 33.2473 0.508928 34.1069 0.570213C35.2636 0.643759 35.8685 0.937935 36.155 1.5508C36.3354 1.91852 36.346 2.67848 36.346 13.7101C36.346 23.3934 36.3248 25.5507 36.1974 25.8694C35.964 26.519 35.4864 26.7641 34.2236 26.9235C33.2579 27.0338 33.1094 27.0828 33.1094 27.2789C33.1094 27.4873 33.4808 27.4996 42.1082 27.4996C48.9635 27.4996 51.1389 27.4628 51.2345 27.3525C51.3087 27.2667 51.3618 26.8377 51.3618 26.2738C51.3618 25.4403 51.4255 24.4352 51.6377 21.5793C51.7014 20.6968 51.6908 20.611 51.521 20.66C51.3936 20.6845 51.2663 20.9909 51.0753 21.7264C50.5341 23.9204 49.441 25.5507 48.1039 26.1758C47.4991 26.4577 47.4248 26.4577 43.7743 26.4577C39.7206 26.4577 39.6781 26.4454 39.2218 25.7468C38.999 25.4036 38.999 25.3423 38.9671 13.8204C38.9459 2.50687 38.9459 2.2127 39.1475 1.68563C39.4341 0.950191 40.0177 0.643759 41.3017 0.557957C42.1082 0.508928 42.2356 0.472155 42.2356 0.276037C42.2356 0.0799198 41.9703 0.0676632 37.6725 0.0676632C33.3747 0.0676632 33.1094 0.0799198 33.1094 0.276037Z" fill="black"/>
<path d="M53.8231 0.263781C53.8549 0.435383 54.0353 0.484413 54.8206 0.5457C56.0091 0.643759 56.6777 0.950191 56.9536 1.53854C57.134 1.91852 57.1446 2.56816 57.1446 13.7959C57.1446 25.5752 57.1446 25.6487 56.9217 25.9797C56.4973 26.6416 56.2426 26.7641 55.0222 26.9235C54.1096 27.0338 53.8549 27.1073 53.8549 27.2544C53.8549 27.4138 54.4386 27.4383 58.4711 27.4383C62.5036 27.4383 63.0872 27.4138 63.0872 27.2544C63.0872 27.1073 62.8432 27.0338 62.0261 26.9357C61.4424 26.8499 60.8694 26.7519 60.7526 26.7028C60.3069 26.5067 59.9673 26.0042 59.8506 25.3668C59.7763 24.9378 59.7445 21.089 59.7657 13.4649C59.7976 2.4701 59.7976 2.17592 60.0098 1.69789C60.3282 0.974707 60.88 0.668272 62.1003 0.557957C62.875 0.49667 63.0872 0.435383 63.0872 0.288296C63.0872 0.12895 62.493 0.104435 58.4392 0.0799198C54.1414 0.0676632 53.7912 0.0799198 53.8231 0.263781Z" fill="black"/>
<path d="M66.2817 0.141197C66.1755 0.337315 66.3878 0.49666 66.8653 0.570204C67.502 0.668262 68.16 1.01147 68.8391 1.58756L69.4016 2.0656V12.7295C69.4016 19.5936 69.3591 23.6753 69.2848 24.1901C69.0514 25.8448 68.3828 26.6538 67.0245 26.9112C66.4833 27.0093 66.3241 27.0951 66.3241 27.2544C66.3241 27.4383 66.6106 27.4628 69.826 27.4628C73.0733 27.4505 73.3279 27.4383 73.3279 27.2422C73.3279 27.0828 73.2006 27.0093 72.7761 26.948C71.5876 26.7641 70.8448 26.1022 70.4946 24.901C70.3248 24.3004 70.3036 23.4301 70.2717 13.7101L70.2399 3.16876L70.5052 3.47519C70.6431 3.6468 74.665 9.23614 79.4298 15.9164C85.9985 25.1216 88.1633 28.0634 88.3544 28.0879L88.609 28.1247V15.9899C88.609 7.47108 88.6409 3.65905 88.7258 3.20553C89.0547 1.44048 89.8188 0.668262 91.4212 0.508919C91.6228 0.484404 91.7502 0.398602 91.7714 0.263771C91.8032 0.0799103 91.5273 0.055397 88.3013 0.0676537C85.0116 0.0676537 84.7888 0.0799103 84.7888 0.276028C84.7888 0.459888 84.9055 0.508919 85.3724 0.570204C86.4761 0.705034 87.134 1.35467 87.516 2.66621C87.6858 3.23005 87.707 4.2474 87.7389 13.1217C87.7495 18.5395 87.7283 22.9644 87.6858 22.9644C87.5797 22.9521 73.0096 2.24946 72.4047 1.24436C71.6088 -0.0794334 71.9484 0.0431385 68.9665 0.0431385C67.5233 0.0431385 66.3135 0.0921688 66.2817 0.141197Z" fill="black"/>
<path d="M7.10995 0.300562C6.61119 0.361849 4.8284 0.398621 3.1305 0.386364C0.116731 0.349592 0.0530593 0.349592 0.0530593 0.594738C0.0530593 0.815371 0.148566 0.852142 1.0718 0.913429C2.24972 0.986973 2.80153 1.25663 3.1305 1.89402C3.34274 2.29851 3.34274 2.56817 3.37457 13.6488C3.3958 21.7141 3.37457 25.1707 3.28968 25.6242C3.07744 26.7641 2.29216 27.2544 0.689772 27.2544C0.0424475 27.2544 0 27.2667 0 27.5241V27.806L4.58433 27.7938C9.0307 27.7815 9.17927 27.7815 9.17927 27.5486C9.17927 27.3402 9.07315 27.3035 8.09686 27.2422C6.86588 27.1564 6.45202 26.948 6.10182 26.2739C5.9002 25.8571 5.88959 25.6242 5.85775 19.8388L5.82592 13.8327H7.34341C8.18175 13.8327 9.0307 13.7714 9.24294 13.6856L9.62497 13.563L10.3041 14.7887C12.0763 18.0124 14.9521 22.6579 16.459 24.7417C17.4247 26.09 18.6875 27.4628 19.1438 27.6834C19.4409 27.8305 20.0777 27.8673 22.2849 27.8673C24.8212 27.8673 25.0546 27.855 25.235 27.6467C25.4048 27.4506 25.4473 27.1196 25.5003 25.281C25.5428 24.1043 25.6171 22.7437 25.6807 22.2412C25.7656 21.5303 25.755 21.2974 25.6489 21.2238C25.4579 21.089 25.3093 21.3464 25.1607 22.1064C24.7999 23.8837 23.6645 25.7836 22.5927 26.3597C22.1364 26.6048 22.1151 26.6171 21.7437 26.3842C20.2899 25.5384 17.9765 22.7315 15.366 18.6743C14.326 17.0441 11.7792 12.7908 11.7792 12.6805C11.7792 12.6437 12.0763 12.3863 12.4265 12.1166C13.6787 11.1606 14.7929 9.50582 15.3023 7.85108C15.6419 6.74792 15.6419 4.68869 15.2917 3.68359C14.7611 2.13916 13.3922 0.950201 11.5669 0.472164C10.6225 0.227018 8.38338 0.141216 7.10995 0.300562ZM9.87965 1.07277C11.7792 1.74693 12.713 3.27909 12.9465 6.15957C13.1269 8.3904 12.7979 10.278 12.0339 11.2954C11.2167 12.3986 10.0919 12.8153 7.90584 12.8276C7.1524 12.8276 6.36712 12.7785 6.17611 12.7295L5.82592 12.6437L5.85775 7.48336C5.88959 2.75203 5.91081 2.27399 6.0806 1.85724C6.28223 1.40372 6.57936 1.09729 6.95077 0.986973C7.42831 0.852142 9.41273 0.913429 9.87965 1.07277Z" fill="black"/>
<path d="M20.0566 0.778595C20.0566 1.25663 20.0673 1.26889 20.4174 1.26889C20.6191 1.26889 21.0754 1.3792 21.4256 1.50178C22.8794 2.02884 23.8239 3.38941 24.0998 5.39961C24.1953 6.12279 24.2589 6.2944 24.3969 6.26988C24.5455 6.23311 24.5667 5.91442 24.5242 3.35264C24.503 1.77144 24.4712 0.43539 24.4393 0.374103C24.4181 0.325073 23.4206 0.288301 22.2215 0.288301H20.0566V0.778595Z" fill="black"/>
<path d="M96.9608 9.5671C96.9184 9.60387 96.8866 9.77547 96.8866 9.93482C96.8866 10.6212 96.6319 11.3689 96.2499 11.8102C95.9315 12.1779 95.6768 12.325 95.0932 12.4966L94.3291 12.7295L94.3609 13.2075C94.3928 13.6856 94.4034 13.6978 94.9446 13.8326C96.1225 14.1391 96.7486 15.0216 96.876 16.517C96.929 17.1666 96.9715 17.2647 97.1731 17.3015L97.4065 17.3382L97.3535 13.563C97.3216 11.4915 97.2792 9.71418 97.2474 9.62838C97.2049 9.46904 97.067 9.43227 96.9608 9.5671Z" fill="black"/>
<path d="M22.6672 10.0329C22.6353 10.1432 22.6035 10.4128 22.6035 10.6335C22.6035 10.8419 22.4974 11.2709 22.37 11.565C22.0304 12.3495 21.5211 12.6927 20.3538 12.9746C20.0885 13.0359 20.0566 13.0972 20.0566 13.514C20.0566 13.992 20.0566 13.992 20.5872 14.1268C21.8925 14.4578 22.4974 15.2668 22.6672 16.9338C22.7202 17.5589 22.7733 17.6937 22.9325 17.6937C23.1129 17.6937 23.1235 17.4976 23.1022 13.8081C23.081 10.327 23.0598 9.9103 22.9112 9.87353C22.8157 9.84901 22.7096 9.92256 22.6672 10.0329Z" fill="black"/>
<path d="M99.4335 21.5793C98.9878 23.9327 97.7038 25.8203 96.1969 26.3351C95.921 26.4332 95.3798 26.519 95.0084 26.519H94.3398V27.0093V27.4996H96.8761C98.7756 27.4996 99.4335 27.4628 99.5184 27.3402C99.5715 27.2667 99.6776 26.1145 99.7413 24.803C99.8156 23.4914 99.9005 22.0941 99.9535 21.7019C100.038 20.9542 100.028 20.8806 99.7519 20.8806C99.6246 20.8806 99.5397 21.0645 99.4335 21.5793Z" fill="black"/>
<path d="M68.5526 37.2442C68.5526 37.379 68.5314 37.7099 68.4995 37.9796C68.4465 38.4454 68.4571 38.4454 68.5526 38.0899C68.6799 37.6119 68.9346 37.3545 69.4015 37.2074C69.7624 37.0971 69.7624 37.0971 69.1575 37.048C68.6057 36.999 68.5526 37.0235 68.5526 37.2442Z" fill="black"/>
<path d="M70.9931 37.1093C70.2927 37.1829 69.847 37.2809 69.9637 37.33C70.1229 37.4158 70.1441 37.6364 70.1441 39.426C70.1441 41.571 70.1229 41.6445 69.6135 41.7549C69.465 41.7794 69.8258 41.8039 70.4094 41.8039C70.9931 41.8039 71.3539 41.7794 71.2053 41.7549C70.6959 41.6445 70.6747 41.5587 70.6747 39.524C70.6747 38.4699 70.7278 37.5261 70.7808 37.428C70.9188 37.1706 71.6722 37.1951 71.9375 37.477C72.0543 37.5996 72.1604 37.8693 72.1816 38.0899C72.2028 38.3228 72.2453 38.1757 72.2665 37.6977C72.2983 37.2809 72.2983 36.95 72.2665 36.95C72.2347 36.9622 71.6616 37.0358 70.9931 37.1093Z" fill="black"/>
<path d="M9.99648 37.3667C9.67812 37.6732 9.64629 37.759 9.67812 38.2615C9.70996 38.8744 9.61445 38.7518 11.0577 39.9408C11.6201 40.4065 11.7793 40.8601 11.5564 41.3258C11.185 42.0981 10.3679 41.9387 9.85853 40.9949L9.55078 40.4433V40.9581C9.55078 41.5465 9.76302 41.7671 10.474 41.9019C11.376 42.0735 12.1507 41.4729 12.1507 40.6149C12.1507 40.0266 11.9385 39.7447 11.0683 39.1808C10.6969 38.9479 10.3254 38.6415 10.2406 38.4944C9.87975 37.8938 10.1663 37.1829 10.7818 37.1829C11.1638 37.1829 11.514 37.4525 11.7899 37.9673L12.0021 38.3473L11.9278 37.857C11.896 37.5874 11.8217 37.3177 11.7687 37.2442C11.7156 37.1829 11.376 37.1093 11.0046 37.0848C10.3997 37.0358 10.3042 37.0726 9.99648 37.3667Z" fill="black"/>
<path d="M35.0088 37.4158C34.6374 37.8448 34.6056 38.3841 34.9027 39.0705L35.115 39.5363L34.6905 40.0021C34.3191 40.4066 34.266 40.5291 34.2979 40.9336C34.3403 41.5955 34.7436 41.9019 35.5288 41.8897C35.8896 41.8897 36.2717 41.8039 36.4839 41.6691C36.8129 41.4729 36.8659 41.4729 37.1949 41.6445C37.3859 41.7549 37.7785 41.8407 38.0651 41.8284C38.5638 41.8161 38.5744 41.8161 38.2561 41.6813C37.7998 41.4729 37.248 41.1175 37.248 41.0194C37.248 40.7252 37.9271 39.3647 38.1287 39.2666C38.2985 39.1931 38.1394 39.1563 37.5663 39.1563C36.9933 39.1563 36.8341 39.1931 37.0039 39.2666C37.1312 39.3279 37.2692 39.5118 37.3116 39.6834C37.3753 39.9775 37.1843 40.8601 37.0676 40.8601C36.728 40.8601 35.4652 39.1563 35.2211 38.3841C35.0301 37.759 35.1786 37.2564 35.5607 37.2074C36.1974 37.1216 36.4096 38.0899 35.9109 38.7641C35.5394 39.2789 35.7517 39.2421 36.2186 38.715C36.537 38.3596 36.6112 38.188 36.6112 37.7957C36.6112 37.2319 36.4202 37.0603 35.7623 37.0603C35.4121 37.0603 35.2529 37.1338 35.0088 37.4158ZM36.6006 41.3013C36.6219 41.3626 36.4627 41.4852 36.2504 41.5833C35.6668 41.8407 35.0513 41.6078 34.8497 41.0317C34.6799 40.5659 34.7329 40.1982 34.9982 39.8427C35.1468 39.6466 35.1999 39.6834 35.8578 40.4066C36.2398 40.8356 36.5794 41.24 36.6006 41.3013Z" fill="black"/>
<path d="M64.425 37.2319C64.1279 37.4158 63.8944 37.8693 63.8838 38.2493C63.8838 38.6292 64.3401 39.1931 64.9874 39.6221C65.7196 40.1124 65.9213 40.382 65.9319 40.9214C65.9425 41.4239 65.7621 41.6813 65.3164 41.7916C64.9025 41.8774 64.3295 41.4484 64.0748 40.8601L63.8838 40.4311V40.9949C63.8838 41.4729 63.9262 41.571 64.1385 41.6936C65.2421 42.2697 66.4306 41.7303 66.4306 40.6517C66.4306 40.0266 66.2821 39.8182 65.4756 39.2666C64.6691 38.715 64.4144 38.3963 64.4144 37.8938C64.4144 37.4648 64.6691 37.1829 65.0617 37.1829C65.4968 37.1829 65.7621 37.3667 66.0062 37.8325L66.2184 38.2247V37.759C66.2184 37.379 66.176 37.2809 65.9425 37.1829C65.5605 37.0113 64.7221 37.0358 64.425 37.2319Z" fill="black"/>
<path d="M81.7119 37.1706C81.2768 37.2196 81.0964 37.2809 81.2131 37.33C81.3723 37.4158 81.3935 37.6364 81.3935 39.426C81.3935 41.522 81.3723 41.62 80.916 41.7549C80.7992 41.7916 81.3511 41.8161 82.1363 41.8039C83.3567 41.7794 83.6326 41.7426 83.9934 41.522C85.1501 40.8233 85.3942 38.8499 84.4497 37.8325C84.142 37.5016 83.5053 37.1829 83.1763 37.1951C82.9853 37.2074 82.9959 37.2319 83.2718 37.3177C84.0571 37.5751 84.5559 38.6905 84.4391 39.8917C84.3118 41.0684 83.7175 41.7181 82.7412 41.7181C81.9559 41.7181 81.9241 41.62 81.9241 39.4627C81.9241 37.4035 81.9347 37.3545 82.5927 37.1829C82.9959 37.0726 82.7624 37.0603 81.7119 37.1706Z" fill="black"/>
<path d="M93.2574 37.1951C93.9684 37.3545 94.361 37.6732 94.6369 38.3105C94.9447 39.0092 94.9765 40.2717 94.7112 40.8601C94.3398 41.6813 93.2998 41.9755 92.5676 41.4607C91.6444 40.7988 91.3897 38.7028 92.1325 37.7345C92.5252 37.2074 92.3978 37.1829 91.8885 37.6732C91.3897 38.1389 91.1562 38.7273 91.1562 39.4873C91.1562 41.1052 92.3129 42.2084 93.65 41.8529C95.592 41.3381 96.1226 38.5925 94.5202 37.3912C94.1594 37.1216 93.9684 37.0603 93.4378 37.0726L92.8011 37.0848L93.2574 37.1951Z" fill="black"/>
<path d="M14.6766 37.3177C14.8358 37.428 14.857 37.6609 14.857 39.4382C14.857 41.522 14.8358 41.62 14.3795 41.7549C14.2627 41.7794 14.6023 41.8161 15.1223 41.8161C15.6529 41.8161 15.9818 41.7794 15.8651 41.7549C15.4619 41.6323 15.3876 41.4607 15.3876 40.6149C15.3876 39.9653 15.43 39.7569 15.5892 39.5853C15.7802 39.3892 15.8121 39.4137 16.3108 40.1614C16.6079 40.5782 16.9581 41.142 17.0961 41.3871C17.3402 41.8284 17.372 41.8407 17.9875 41.8284C18.5711 41.8161 18.5924 41.8039 18.274 41.7058C18.0087 41.62 17.7116 41.2646 17.0324 40.284L16.1304 38.9724L16.6292 38.3718C17.1385 37.7835 17.5312 37.477 18.0405 37.2932C18.2316 37.2319 18.1042 37.2074 17.6161 37.1951C17.1598 37.1951 16.9794 37.2196 17.0855 37.2932C17.2022 37.3912 17.043 37.6364 16.3108 38.4944L15.3876 39.5731V38.568C15.3876 37.8203 15.43 37.5138 15.5574 37.379C15.7059 37.1951 15.6635 37.1829 15.1011 37.1829C14.6341 37.1951 14.528 37.2196 14.6766 37.3177Z" fill="black"/>
<path d="M20.9056 37.428C21.0967 37.6486 21.1179 37.8325 21.1179 39.3769C21.1179 41.3381 21.0436 41.6813 20.6191 41.7549C20.46 41.7794 20.7783 41.8039 21.3301 41.8039C21.8819 41.8039 22.2003 41.7794 22.0411 41.7549C21.5954 41.6813 21.5211 41.2891 21.5636 39.2911C21.5954 37.7099 21.6166 37.5138 21.797 37.3545C21.9881 37.1951 21.9456 37.1829 21.3513 37.1829H20.6934L20.9056 37.428Z" fill="black"/>
<path d="M24.5664 37.33C24.9166 37.5506 24.9378 37.6732 24.9272 39.144C24.9272 41.0072 24.8423 41.4852 24.5133 41.6813C24.2693 41.8161 24.3117 41.8407 24.9378 41.8284C25.5109 41.8284 25.5851 41.8039 25.3835 41.6936C25.0652 41.5097 25.0333 41.3013 25.0652 39.426L25.097 37.8202L26.5827 39.9162L28.0683 42L28.1214 39.7692C28.1744 37.7344 28.1957 37.5138 28.3761 37.3545C28.5671 37.1951 28.5352 37.1829 28.0046 37.1951C27.5802 37.1951 27.4847 37.2196 27.6545 37.3054C27.7924 37.3667 27.9091 37.5628 27.9516 37.7957C28.0471 38.3473 28.0365 40.8601 27.941 40.8601C27.8879 40.8478 27.283 40.0266 26.5827 39.0215L25.3198 37.1829H24.8317C24.4178 37.1951 24.386 37.2074 24.5664 37.33Z" fill="black"/>
<path d="M44.1451 37.2687C44.4316 37.4035 44.4634 37.5874 44.4634 39.4627C44.4634 41.3871 44.4104 41.6445 43.9859 41.7549C43.8692 41.7916 44.2087 41.8161 44.7287 41.8161C45.2593 41.8161 45.5883 41.7794 45.4716 41.7549C45.0153 41.62 44.994 41.522 44.994 39.4382C44.994 37.6609 45.0153 37.428 45.185 37.3177C45.323 37.2196 45.1957 37.1951 44.6757 37.1951C44.2936 37.1951 44.0602 37.2319 44.1451 37.2687Z" fill="black"/>
<path d="M47.9657 37.3422C48.231 37.4893 48.231 37.5138 48.2628 39.2176C48.2946 41.0807 48.2097 41.5342 47.8383 41.7181C47.6579 41.7916 47.7853 41.8284 48.3371 41.8284C48.8677 41.8284 49.0162 41.7916 48.8464 41.7181C48.4432 41.5342 48.3795 41.2033 48.4114 39.4505L48.4432 37.7835L49.9289 39.8795L51.4145 41.9755L51.4782 39.7324C51.51 38.4944 51.5419 37.477 51.5525 37.4525C51.5631 37.4403 51.6798 37.3667 51.8178 37.3054C51.9982 37.2196 51.9239 37.1951 51.4782 37.1951C50.9476 37.1829 50.9158 37.1951 51.1068 37.3545C51.2872 37.5138 51.3084 37.7099 51.3402 39.2053C51.3721 40.333 51.3402 40.8601 51.2659 40.811C51.2129 40.762 50.5974 39.9285 49.9182 38.9602L48.6873 37.1829H48.1885C47.7216 37.1829 47.711 37.1951 47.9657 37.3422Z" fill="black"/>
<path d="M54.577 37.3177C54.7362 37.428 54.7574 37.6609 54.7574 39.4382C54.7574 41.522 54.7362 41.62 54.2798 41.7549C54.1631 41.7794 54.5027 41.8161 55.0227 41.8161C55.5533 41.8161 55.8822 41.7794 55.7655 41.7549C55.3516 41.6323 55.288 41.4729 55.288 40.5536C55.288 39.8917 55.3304 39.6221 55.4578 39.4995C55.6488 39.3279 55.7337 39.426 56.6887 40.9459L57.2406 41.8407L57.8879 41.8284C58.514 41.8284 58.5246 41.8284 58.1532 41.6813C57.8879 41.571 57.5483 41.191 56.901 40.2717L55.999 38.997L56.6251 38.2738C56.9859 37.8448 57.421 37.477 57.6756 37.379L58.1001 37.2074L57.4952 37.1951C56.9965 37.1829 56.901 37.2196 56.9434 37.3667C56.9859 37.4893 56.7206 37.8938 56.1475 38.5679L55.288 39.573V38.5067C55.288 37.6241 55.3198 37.4158 55.479 37.3177C55.6169 37.2196 55.5108 37.1951 55.0227 37.1951C54.5345 37.1951 54.4284 37.2196 54.577 37.3177Z" fill="black"/>
<path d="M74.6334 37.3177C74.782 37.4158 74.8138 37.6364 74.8138 38.7518C74.8138 40.7988 75.0367 41.3871 75.9387 41.7916C76.7452 42.1471 77.5092 41.8897 78.0292 41.0807C78.199 40.811 78.2415 40.5046 78.2839 39.3034C78.337 37.5506 78.3688 37.3422 78.6129 37.2687C78.7084 37.2319 78.528 37.2074 78.2096 37.1951C77.6578 37.1829 77.6472 37.1951 77.8701 37.379C78.0929 37.5506 78.1035 37.6486 78.1035 39.0582C78.1035 40.6762 78.0292 40.9826 77.5411 41.3994C77.1484 41.7303 76.4056 41.7303 76.0024 41.3871C75.4718 40.9459 75.3444 40.4556 75.3444 38.8744C75.3444 37.6364 75.3656 37.428 75.5354 37.3177C75.6734 37.2196 75.5673 37.1951 75.0791 37.1951C74.591 37.1951 74.4849 37.2196 74.6334 37.3177Z" fill="black"/>
<path d="M87.548 37.2687C87.8345 37.4035 87.8663 37.5874 87.8663 39.4627C87.8663 41.4362 87.8133 41.6568 87.3357 41.7549C87.1872 41.7794 87.5267 41.8039 88.0786 41.8039C88.6304 41.8161 88.9912 41.7794 88.8745 41.7549C88.4181 41.62 88.3969 41.522 88.3969 39.4382C88.3969 37.6609 88.4181 37.428 88.5879 37.3177C88.7259 37.2196 88.5985 37.1951 88.0786 37.1951C87.6965 37.1951 87.4631 37.2319 87.548 37.2687Z" fill="black"/>
</svg>
