<svg width="20" height="28" viewBox="0 0 20 28" fill="none" xmlns="http://www.w3.org/2000/svg">
<path d="M9.73041 12.9756C11.5161 12.9756 12.9637 11.528 12.9637 9.74225C12.9637 7.95653 11.5161 6.50891 9.73041 6.50891C7.94468 6.50891 6.49707 7.95653 6.49707 9.74225C6.49707 11.528 7.94468 12.9756 9.73041 12.9756Z" stroke="white" stroke-linecap="round" stroke-linejoin="round"/>
<path d="M9.73044 27.1165C10.0189 27.1165 10.5757 27.0427 10.5757 25.9493C10.5757 22.5013 15.4525 18.7179 17.6662 14.4448C18.4987 13.0434 18.9453 11.4465 18.9605 9.81656C18.9757 8.18662 18.559 6.58171 17.7528 5.16503C16.9466 3.74836 15.7796 2.57043 14.3705 1.75104C12.9614 0.931643 11.3605 0.5 9.73044 0.5C8.10042 0.5 6.49948 0.931643 5.09038 1.75104C3.68129 2.57043 2.5143 3.74836 1.70809 5.16503C0.90188 6.58171 0.485194 8.18662 0.500402 9.81656C0.51561 11.4465 0.962171 13.0434 1.79468 14.4448C4.00837 18.7179 8.88521 22.4946 8.88521 25.9493C8.88521 27.0427 9.44199 27.1165 9.73044 27.1165Z" stroke="white" stroke-linecap="round" stroke-linejoin="round"/>
</svg>
